<svg xmlns="http://www.w3.org/2000/svg" viewBox="0 0 16 16" class="footer-icon">
    <path fill="#4F6F52" d="M8 .198A8 8 0 0 0 0 8c0 3.536 2.292 6.528 5.47 7.594.4.073.548-.173.548-.384 0-.19-.007-.825-.012-1.5-2.1.455-2.544-1.01-2.544-1.01-.343-.87-.837-1.1-.837-1.1-.684-.465.052-.456.052-.456.758.053 1.153.778 1.153.778.673 1.151 1.762.819 2.192.626.068-.486.263-.819.48-1.007-1.666-.191-3.415-.833-3.415-3.707 0-.82.293-1.487.776-2.017-.078-.191-.337-.965.073-2.008 0 0 .63-.202 2.063.77a7.198 7.198 0 0 1 1.884-.253 7.197 7.197 0 0 1 1.884.253c1.432-.972 2.063-.77 2.063-.77.41 1.043.151 1.817.073 2.008.484.53.776 1.197.776 2.017 0 2.889-1.756 3.516-3.427 3.705.27.233.51.692.51 1.392 0 1.006-.009 1.817-.012 2.063 0 .212.145.459.551.383A8 8 0 0 0 16 8a8 8 0 0 0-8-7.802z"/>
</svg>