<svg width="888" height="890" viewBox="0 0 888 890" fill="none" xmlns="http://www.w3.org/2000/svg">
<ellipse cx="444.001" cy="445" rx="444.001" ry="445" fill="#E2E2E0"/>
<ellipse cx="443.502" cy="444.5" rx="367.672" ry="368.5" fill="#E2E2E0" stroke="#4EAE66" stroke-width="70"/>
<path d="M530.89 725.068L404.178 807.566C401.747 809.148 402.208 812.743 404.814 813.761L540.506 866.76C542.877 867.686 545.444 865.844 545.273 863.267L540.783 795.519L536.293 727.77C536.114 725.069 533.105 723.625 530.89 725.068Z" fill="#E2E2E0" stroke="#E2E2E0" stroke-width="7"/>
<path d="M121.678 585.528C123.345 592.689 127.002 605.613 134.016 617.034C140.96 628.341 152.938 640.774 171.584 640.774H714.368C732.653 640.774 744.962 628.858 752.388 617.868C759.913 606.733 764.228 594.062 766.296 586.879C769.64 575.266 760.538 565.004 749.682 564.995L138.543 564.505C128.045 564.496 119.02 574.106 121.678 585.528Z" fill="#173736" stroke="#E2E2E0" stroke-width="25"/>
<path d="M435.644 810.86C432.843 809.678 432.334 805.926 434.718 804.038L536.114 723.747C538.646 721.742 542.386 723.407 542.588 726.63L550.522 853.05C550.709 856.015 547.711 858.143 544.974 856.988L435.644 810.86Z" fill="#4EAE66"/>
<rect x="350.493" y="640.012" width="194.106" height="38.2138" rx="7.5" fill="#173736"/>
<mask id="path-7-outside-1_11_4" maskUnits="userSpaceOnUse" x="138.329" y="185" width="612" height="358" fill="black">
<rect fill="white" x="138.329" y="185" width="612" height="358"/>
<path d="M168.329 255C168.329 232.909 186.237 215 208.329 215H679.451C701.542 215 719.451 232.909 719.451 255V542.712H168.329V255Z"/>
</mask>
<path d="M168.329 255C168.329 232.909 186.237 215 208.329 215H679.451C701.542 215 719.451 232.909 719.451 255V542.712H168.329V255Z" fill="#173736"/>
<path d="M138.329 255C138.329 216.34 169.669 185 208.329 185H679.451C718.11 185 749.451 216.34 749.451 255H689.451C689.451 249.477 684.973 245 679.451 245H208.329C202.806 245 198.329 249.477 198.329 255H138.329ZM719.451 542.712H168.329H719.451ZM138.329 542.712V255C138.329 216.34 169.669 185 208.329 185V245C202.806 245 198.329 249.477 198.329 255V542.712H138.329ZM679.451 185C718.11 185 749.451 216.34 749.451 255V542.712H689.451V255C689.451 249.477 684.973 245 679.451 245V185Z" fill="#E2E2E0" mask="url(#path-7-outside-1_11_4)"/>
<path d="M442.226 492C490.458 492 527.754 477.141 552.767 450.439C577.638 423.888 588.568 387.545 588.056 347.967C587.037 269.219 540.965 173.551 458.766 98.0082C451.147 91.0062 439.391 90.9958 431.762 98.0036C349.605 173.467 302.036 269.013 299.407 347.659C298.086 387.182 308.151 423.617 332.487 450.293C356.98 477.142 394.006 492 442.226 492Z" fill="#4EAE66" stroke="#E2E2E0" stroke-width="30"/>
<path d="M430.032 209.969C430.032 202.254 436.286 196 444.001 196V196C451.715 196 457.969 202.254 457.969 209.969V577H430.032V209.969Z" fill="#E2E2E0"/>
<path d="M357.954 349.876C352.997 344.694 353.171 336.465 358.342 331.496V331.496C363.513 326.528 371.724 326.701 376.681 331.883L448.542 407.013L429.816 425.006L357.954 349.876Z" fill="#E2E2E0"/>
<path d="M529.365 349.876C534.322 344.694 534.148 336.465 528.977 331.496V331.496C523.806 326.528 515.595 326.701 510.639 331.883L438.777 407.013L457.503 425.006L529.365 349.876Z" fill="#E2E2E0"/>
</svg>
